<svg xmlns="http://www.w3.org/2000/svg" viewBox="0 0 320 240" shape-rendering="crispEdges">
  <defs>
    <linearGradient id="bg" x1="0" y1="0" x2="1" y2="1">
      <stop offset="0%" stop-color="#0d1019" />
      <stop offset="100%" stop-color="#102612" />
    </linearGradient>
    <pattern id="grid" width="16" height="16" patternUnits="userSpaceOnUse">
      <path d="M16 0H0V16" fill="none" stroke="#7affdd" stroke-opacity=".16" stroke-width="1" />
    </pattern>
  </defs>
  <rect width="320" height="240" fill="url(#bg)" />
  <rect width="320" height="240" fill="url(#grid)" />
  <rect x="44" y="24" width="232" height="100" fill="#11161f" stroke="#7affdd" stroke-width="4" />
  <rect x="44" y="24" width="232" height="16" fill="#ff2fb5" />
  <rect x="58" y="56" width="56" height="36" fill="#0b1110" stroke="#1cff7a" stroke-width="4" />
  <rect x="126" y="56" width="104" height="10" fill="#1cff7a" />
  <rect x="126" y="76" width="86" height="8" fill="#7affdd" />
  <rect x="126" y="92" width="94" height="8" fill="#7affdd" />
  <rect x="238" y="56" width="22" height="22" fill="#ffcf55" />
  <rect x="66" y="64" width="12" height="20" fill="#ffcf55" />
  <rect x="84" y="64" width="12" height="20" fill="#ffcf55" />
  <rect x="194" y="76" width="8" height="20" fill="#ff2fb5" />
  <rect x="24" y="54" width="18" height="56" fill="#ececec" stroke="#ffcf55" stroke-width="4" />
  <rect x="28" y="62" width="10" height="10" fill="#ff2fb5" />
  <rect x="28" y="78" width="10" height="10" fill="#1b1b1b" />
  <rect x="32" y="82" width="2" height="2" fill="#ff2fb5" />
  <path d="M42 82h14v4H42zm4-4h6v12h-6z" fill="#ff2fb5" />
  <rect x="48" y="144" width="224" height="64" fill="#14181a" stroke="#1cff7a" stroke-width="4" />
  <rect x="60" y="156" width="20" height="12" fill="#ffcf55" />
  <rect x="86" y="156" width="20" height="12" fill="#7affdd" />
  <rect x="112" y="156" width="20" height="12" fill="#7affdd" />
  <rect x="138" y="156" width="20" height="12" fill="#ff2fb5" />
  <rect x="164" y="156" width="20" height="12" fill="#7affdd" />
  <rect x="190" y="156" width="20" height="12" fill="#7affdd" />
  <rect x="216" y="156" width="20" height="12" fill="#ffcf55" />
  <rect x="242" y="156" width="18" height="12" fill="#7affdd" />
  <rect x="60" y="174" width="18" height="12" fill="#7affdd" />
  <rect x="84" y="174" width="18" height="12" fill="#1cff7a" />
  <rect x="108" y="174" width="18" height="12" fill="#7affdd" />
  <rect x="132" y="174" width="18" height="12" fill="#7affdd" />
  <rect x="156" y="174" width="18" height="12" fill="#ff2fb5" />
  <rect x="180" y="174" width="18" height="12" fill="#7affdd" />
  <rect x="204" y="174" width="18" height="12" fill="#7affdd" />
  <rect x="228" y="174" width="32" height="12" fill="#1cff7a" />
  <rect x="90" y="192" width="26" height="8" fill="#7affdd" />
  <rect x="122" y="192" width="84" height="8" fill="#ffcf55" />
  <rect x="212" y="192" width="26" height="8" fill="#7affdd" />
  <path d="M34 116h26v8H34zm18-4h8v16h-8z" fill="#7affdd" />
</svg>
