<svg xmlns="http://www.w3.org/2000/svg" viewBox="0 0 320 240" shape-rendering="crispEdges">
  <defs>
    <linearGradient id="bg" x1="0" y1="0" x2="1" y2="1">
      <stop offset="0%" stop-color="#08140b" />
      <stop offset="100%" stop-color="#14253f" />
    </linearGradient>
    <pattern id="grid" width="16" height="16" patternUnits="userSpaceOnUse">
      <path d="M16 0H0V16" fill="none" stroke="#1cff7a" stroke-opacity=".2" stroke-width="1" />
    </pattern>
  </defs>
  <rect width="320" height="240" fill="url(#bg)" />
  <rect width="320" height="240" fill="url(#grid)" />
  <rect x="18" y="18" width="284" height="204" fill="#040606" stroke="#1cff7a" stroke-width="4" />
  <rect x="18" y="18" width="284" height="18" fill="#ff2fb5" />
  <rect x="28" y="22" width="10" height="10" fill="#fff59d" />
  <rect x="42" y="22" width="10" height="10" fill="#0e1411" />
  <rect x="56" y="22" width="10" height="10" fill="#0e1411" />
  <rect x="28" y="48" width="54" height="152" fill="#0e1712" stroke="#66ffbe" stroke-width="4" />
  <rect x="96" y="48" width="194" height="152" fill="#09120f" stroke="#66ffbe" stroke-width="4" />
  <rect x="36" y="58" width="16" height="14" fill="#ffcf55" />
  <rect x="58" y="60" width="14" height="10" fill="#1cff7a" />
  <rect x="36" y="82" width="34" height="6" fill="#1cff7a" />
  <rect x="36" y="94" width="26" height="6" fill="#8af7ff" />
  <rect x="36" y="118" width="34" height="6" fill="#1cff7a" />
  <rect x="36" y="130" width="22" height="6" fill="#8af7ff" />
  <rect x="36" y="154" width="34" height="6" fill="#1cff7a" />
  <rect x="36" y="166" width="28" height="6" fill="#8af7ff" />
  <rect x="36" y="182" width="20" height="8" fill="#ff2fb5" />
  <rect x="108" y="60" width="50" height="36" fill="#d4f8ff" />
  <rect x="164" y="60" width="50" height="36" fill="#d4f8ff" />
  <rect x="220" y="60" width="50" height="36" fill="#d4f8ff" />
  <rect x="108" y="104" width="50" height="36" fill="#d4f8ff" />
  <rect x="164" y="104" width="50" height="36" fill="#d4f8ff" />
  <rect x="220" y="104" width="50" height="36" fill="#d4f8ff" />
  <rect x="108" y="148" width="78" height="38" fill="#0c1914" stroke="#ffcf55" stroke-width="4" />
  <rect x="192" y="148" width="78" height="38" fill="#0c1914" stroke="#8af7ff" stroke-width="4" />
  <circle cx="122" cy="72" r="6" fill="#ffcf55" />
  <circle cx="178" cy="72" r="6" fill="#ffcf55" />
  <circle cx="234" cy="72" r="6" fill="#ffcf55" />
  <path d="M108 96h50V78l-14-10-10 12-8-6-18 22z" fill="#1cff7a" />
  <path d="M164 96h50V76l-16-8-10 14-10-8-14 22z" fill="#45c1ff" />
  <path d="M220 96h50V78l-12-10-10 10-10-6-18 24z" fill="#ff6fe2" />
  <path d="M108 140h50v-16l-12-8-10 10-8-6-20 20z" fill="#45c1ff" />
  <path d="M164 140h50v-18l-14-10-12 12-8-8-16 24z" fill="#1cff7a" />
  <path d="M220 140h50v-18l-10-8-12 12-10-8-18 22z" fill="#ffcf55" />
  <rect x="120" y="160" width="20" height="14" fill="#ff2fb5" />
  <rect x="146" y="160" width="28" height="14" fill="#1cff7a" />
  <rect x="206" y="160" width="18" height="14" fill="#8af7ff" />
  <rect x="230" y="160" width="28" height="14" fill="#ffcf55" />
  <rect x="236" y="42" width="50" height="14" fill="#0e1712" stroke="#ffcf55" stroke-width="4" />
  <rect x="244" y="46" width="12" height="8" fill="#ffcf55" />
  <rect x="262" y="46" width="14" height="8" fill="#1cff7a" />
  <rect x="28" y="206" width="264" height="8" fill="#1cff7a" />
</svg>
