<svg xmlns="http://www.w3.org/2000/svg" viewBox="0 0 320 240" shape-rendering="crispEdges">
  <defs>
    <linearGradient id="bg" x1="0" y1="0" x2="1" y2="1">
      <stop offset="0%" stop-color="#091010" />
      <stop offset="100%" stop-color="#1a1230" />
    </linearGradient>
    <pattern id="grid" width="16" height="16" patternUnits="userSpaceOnUse">
      <path d="M16 0H0V16" fill="none" stroke="#7affdd" stroke-opacity=".16" stroke-width="1" />
    </pattern>
  </defs>
  <rect width="320" height="240" fill="url(#bg)" />
  <rect width="320" height="240" fill="url(#grid)" />
  <rect x="28" y="38" width="108" height="144" fill="#d7f4ff" stroke="#7affdd" stroke-width="4" />
  <rect x="42" y="54" width="80" height="84" fill="#141824" />
  <circle cx="58" cy="70" r="8" fill="#ffcf55" />
  <path d="M42 138h80V96l-20-18-18 22-14-10-28 48z" fill="#1cff7a" />
  <rect x="46" y="146" width="72" height="8" fill="#ff2fb5" />
  <rect x="46" y="160" width="54" height="6" fill="#6a7595" />
  <rect x="46" y="172" width="64" height="6" fill="#6a7595" />
  <rect x="152" y="58" width="22" height="112" fill="#ff2fb5" />
  <rect x="176" y="78" width="18" height="72" fill="#7affdd" opacity=".8" />
  <rect x="198" y="40" width="92" height="70" fill="#f6f6f7" stroke="#ffcf55" stroke-width="4" />
  <rect x="210" y="54" width="56" height="8" fill="#1a1d25" />
  <rect x="210" y="70" width="68" height="6" fill="#6a7595" />
  <rect x="210" y="82" width="60" height="6" fill="#6a7595" />
  <rect x="198" y="126" width="92" height="70" fill="#f6f6f7" stroke="#7affdd" stroke-width="4" />
  <rect x="210" y="140" width="42" height="10" fill="#ff2fb5" />
  <rect x="210" y="156" width="68" height="6" fill="#6a7595" />
  <rect x="210" y="168" width="56" height="6" fill="#6a7595" />
  <rect x="258" y="138" width="20" height="16" fill="#1cff7a" />
  <path d="M124 110h18v8h-18zm8-10h8v28h-8z" fill="#ffcf55" />
  <rect x="202" y="206" width="88" height="10" fill="#1cff7a" />
</svg>
