<svg xmlns="http://www.w3.org/2000/svg" viewBox="0 0 320 240" shape-rendering="crispEdges">
  <defs>
    <linearGradient id="bg" x1="0" y1="0" x2="1" y2="1">
      <stop offset="0%" stop-color="#110913" />
      <stop offset="100%" stop-color="#0b1f18" />
    </linearGradient>
    <pattern id="grid" width="16" height="16" patternUnits="userSpaceOnUse">
      <path d="M16 0H0V16" fill="none" stroke="#7affdd" stroke-opacity=".16" stroke-width="1" />
    </pattern>
  </defs>
  <rect width="320" height="240" fill="url(#bg)" />
  <rect width="320" height="240" fill="url(#grid)" />
  <rect x="24" y="34" width="122" height="104" fill="#0a1010" stroke="#7affdd" stroke-width="4" />
  <rect x="174" y="34" width="122" height="104" fill="#12161e" stroke="#ff2fb5" stroke-width="4" />
  <rect x="24" y="34" width="122" height="16" fill="#1cff7a" />
  <rect x="174" y="34" width="122" height="16" fill="#ff2fb5" />
  <rect x="38" y="62" width="44" height="8" fill="#7affdd" />
  <rect x="38" y="78" width="80" height="6" fill="#5f7891" />
  <rect x="38" y="90" width="70" height="6" fill="#5f7891" />
  <rect x="38" y="102" width="76" height="6" fill="#1cff7a" />
  <rect x="188" y="62" width="54" height="8" fill="#ffcf55" />
  <rect x="188" y="78" width="92" height="6" fill="#5f7891" />
  <rect x="188" y="90" width="76" height="6" fill="#5f7891" />
  <rect x="188" y="102" width="86" height="6" fill="#ff2fb5" />
  <rect x="62" y="120" width="16" height="8" fill="#ffcf55" />
  <rect x="84" y="120" width="22" height="8" fill="#1cff7a" />
  <rect x="208" y="120" width="16" height="8" fill="#7affdd" />
  <rect x="230" y="120" width="28" height="8" fill="#ffcf55" />
  <path d="M144 84h20v8h-20zm12-8h8v24h-8z" fill="#ffcf55" />
  <path d="M162 88h18v8h-18zm10-8h8v24h-8z" fill="#7affdd" />
  <rect x="58" y="162" width="204" height="48" fill="#f5f6f7" stroke="#7affdd" stroke-width="4" />
  <rect x="74" y="178" width="16" height="8" fill="#1cff7a" />
  <path d="M76 180h4v4h4v4h4v-8h4v12H84v-4h-4v-4h-4z" fill="#1cff7a" />
  <rect x="102" y="176" width="120" height="6" fill="#31394a" />
  <rect x="102" y="188" width="90" height="6" fill="#5f7891" />
  <rect x="230" y="174" width="18" height="18" fill="#ff2fb5" />
  <rect x="236" y="180" width="6" height="6" fill="#f5f6f7" />
</svg>
